<svg xmlns="http://www.w3.org/2000/svg" xmlns:xlink="http://www.w3.org/1999/xlink" width="2000" zoomAndPan="magnify" viewBox="0 0 1500 1499.999933" height="2000" preserveAspectRatio="xMidYMid meet" version="1.0"><defs><g/><clipPath id="1be221955f"><path d="M 0.351562 647.523438 L 973.660156 647.523438 L 973.660156 903.867188 L 0.351562 903.867188 Z M 0.351562 647.523438 " clip-rule="nonzero"/></clipPath><clipPath id="c19e9d8239"><path d="M 19.851562 647.523438 L 954.148438 647.523438 C 959.320312 647.523438 964.28125 649.574219 967.9375 653.234375 C 971.59375 656.890625 973.648438 661.851562 973.648438 667.023438 L 973.648438 884.367188 C 973.648438 889.539062 971.59375 894.5 967.9375 898.15625 C 964.28125 901.8125 959.320312 903.867188 954.148438 903.867188 L 19.851562 903.867188 C 14.679688 903.867188 9.71875 901.8125 6.0625 898.15625 C 2.40625 894.5 0.351562 889.539062 0.351562 884.367188 L 0.351562 667.023438 C 0.351562 661.851562 2.40625 656.890625 6.0625 653.234375 C 9.71875 649.574219 14.679688 647.523438 19.851562 647.523438 Z M 19.851562 647.523438 " clip-rule="nonzero"/></clipPath><clipPath id="8bf6e758e6"><path d="M 0.351562 0.523438 L 973.660156 0.523438 L 973.660156 256.867188 L 0.351562 256.867188 Z M 0.351562 0.523438 " clip-rule="nonzero"/></clipPath><clipPath id="2894099d95"><path d="M 19.851562 0.523438 L 954.148438 0.523438 C 959.320312 0.523438 964.28125 2.574219 967.9375 6.234375 C 971.59375 9.890625 973.648438 14.851562 973.648438 20.023438 L 973.648438 237.367188 C 973.648438 242.539062 971.59375 247.5 967.9375 251.15625 C 964.28125 254.8125 959.320312 256.867188 954.148438 256.867188 L 19.851562 256.867188 C 14.679688 256.867188 9.71875 254.8125 6.0625 251.15625 C 2.40625 247.5 0.351562 242.539062 0.351562 237.367188 L 0.351562 20.023438 C 0.351562 14.851562 2.40625 9.890625 6.0625 6.234375 C 9.71875 2.574219 14.679688 0.523438 19.851562 0.523438 Z M 19.851562 0.523438 " clip-rule="nonzero"/></clipPath><clipPath id="b2a19aae42"><rect x="0" width="974" y="0" height="257"/></clipPath><clipPath id="7cfbb5223a"><path d="M 194 66 L 809 66 L 809 1483.238281 L 194 1483.238281 Z M 194 66 " clip-rule="nonzero"/></clipPath><clipPath id="f1d305f938"><rect x="0" width="615" y="0" height="1418"/></clipPath><clipPath id="4f5b287adb"><rect x="0" width="974" y="0" height="1484"/></clipPath></defs><g transform="matrix(1, 0, 0, 1, 263, 11)"><g clip-path="url(#4f5b287adb)"><g clip-path="url(#1be221955f)"><g clip-path="url(#c19e9d8239)"><g transform="matrix(1, 0, 0, 1, -0.000000000000056843, 647)"><g clip-path="url(#b2a19aae42)"><g clip-path="url(#8bf6e758e6)"><g clip-path="url(#2894099d95)"><path fill="#ffedd3" d="M 0.351562 0.523438 L 973.660156 0.523438 L 973.660156 256.867188 L 0.351562 256.867188 Z M 0.351562 0.523438 " fill-opacity="1" fill-rule="nonzero"/></g></g></g></g></g></g><g fill="#a98e66" fill-opacity="1"><g transform="translate(320.871935, 1131.769381)"><g><path d="M 360.09375 -108.375 C 364.644531 -103.25 368.484375 -96.421875 371.609375 -87.890625 C 374.734375 -79.359375 376.296875 -71.960938 376.296875 -65.703125 C 376.296875 -53.191406 369.753906 -40.960938 356.671875 -29.015625 C 343.585938 -17.066406 326.09375 -7.113281 304.1875 0.84375 C 282.289062 8.8125 258.546875 12.796875 232.953125 12.796875 C 191.421875 12.796875 154.726562 3.410156 122.875 -15.359375 C 91.019531 -34.128906 66.273438 -61.148438 48.640625 -96.421875 C 31.003906 -131.691406 22.1875 -173.503906 22.1875 -221.859375 C 22.1875 -271.347656 31.710938 -314.296875 50.765625 -350.703125 C 69.828125 -387.109375 96.28125 -414.984375 130.125 -434.328125 C 163.976562 -453.671875 201.953125 -463.34375 244.046875 -463.34375 C 286.140625 -463.34375 318.988281 -453.242188 342.59375 -433.046875 C 366.207031 -412.847656 378.015625 -387.109375 378.015625 -355.828125 C 378.015625 -329.085938 371.1875 -308.179688 357.53125 -293.109375 C 343.875 -278.035156 326.238281 -270.5 304.625 -270.5 C 286.988281 -270.5 272.195312 -277.039062 260.25 -290.125 C 248.3125 -303.207031 242.34375 -319.132812 242.34375 -337.90625 C 242.34375 -350.414062 244.613281 -360.9375 249.15625 -369.46875 C 253.707031 -378.007812 259.96875 -385.691406 267.9375 -392.515625 C 258.832031 -397.640625 250.582031 -400.203125 243.1875 -400.203125 C 223.84375 -400.203125 206.773438 -388.679688 191.984375 -365.640625 C 177.203125 -342.597656 169.8125 -304.625 169.8125 -251.71875 C 169.8125 -191.414062 178.625 -148.039062 196.25 -121.59375 C 213.882812 -95.144531 239.769531 -81.921875 273.90625 -81.921875 C 289.832031 -81.921875 305.617188 -84.191406 321.265625 -88.734375 C 336.910156 -93.285156 349.851562 -99.832031 360.09375 -108.375 Z M 360.09375 -108.375 "/></g></g></g><g fill="#c7b69d" fill-opacity="1"><g transform="translate(466.705321, 1021.743341)"><g><path d="M -16.59375 -550.546875 C -18.863281 -564.578125 -24.640625 -574.441406 -33.921875 -580.140625 C -43.203125 -585.847656 -58.789062 -586.929688 -80.6875 -583.390625 L -86.140625 -617.078125 C -67.753906 -631.578125 -43.753906 -645.257812 -14.140625 -658.125 C 15.472656 -670.988281 39.828125 -678.96875 58.921875 -682.0625 C 72.390625 -684.25 82.382812 -682.988281 88.90625 -678.28125 C 95.4375 -673.570312 99.835938 -664.195312 102.109375 -650.15625 L 187.28125 -124.5625 C 190.101562 -107.15625 195.566406 -95.648438 203.671875 -90.046875 C 211.785156 -84.453125 224.265625 -83.019531 241.109375 -85.75 C 243.660156 -70.03125 239.378906 -53.773438 228.265625 -36.984375 L 43.796875 -7.09375 C 28.617188 -19.03125 19.707031 -33.144531 17.0625 -49.4375 C 33.332031 -52.082031 44.550781 -57.503906 50.71875 -65.703125 C 56.882812 -73.898438 58.601562 -86.425781 55.875 -103.28125 Z M -16.59375 -550.546875 "/></g></g></g><g fill="#857661" fill-opacity="1"><g transform="translate(234.033455, 1129.030889)"><g><path d="M 446.640625 -36.75 C 444.703125 -23.238281 446.601562 -11.472656 452.34375 -1.453125 C 458.082031 8.566406 467.351562 15.066406 480.15625 18.046875 L 476.765625 41.6875 C 466.296875 50.53125 451.222656 56.414062 431.546875 59.34375 C 411.878906 62.269531 392.476562 62.359375 373.34375 59.609375 C 354.1875 56.859375 338.578125 49.445312 326.515625 37.375 C 314.460938 25.300781 307.472656 9.9375 305.546875 -8.71875 C 273.023438 25.675781 231.707031 39.28125 181.59375 32.09375 C 142.175781 26.4375 113.222656 9.929688 94.734375 -17.421875 C 76.253906 -44.785156 69.960938 -79.023438 75.859375 -120.140625 L 109.203125 -352.40625 C 110.578125 -361.976562 108.023438 -369.238281 101.546875 -374.1875 C 95.066406 -379.144531 85.070312 -382.597656 71.5625 -384.546875 L 76.90625 -421.71875 C 86.320312 -427.25 103.476562 -431.675781 128.375 -435 C 153.28125 -438.332031 179.242188 -438.054688 206.265625 -434.171875 C 222.035156 -431.910156 233.4375 -429.265625 240.46875 -426.234375 C 247.507812 -423.210938 251.992188 -418.40625 253.921875 -411.8125 C 255.847656 -405.21875 255.84375 -395.160156 253.90625 -381.640625 L 213.171875 -97.84375 C 210.660156 -80.394531 211.734375 -66.878906 216.390625 -57.296875 C 221.054688 -47.722656 230.148438 -41.96875 243.671875 -40.03125 C 254.929688 -38.414062 266.554688 -40.335938 278.546875 -45.796875 C 290.535156 -51.253906 301.195312 -58.484375 310.53125 -67.484375 L 346.546875 -318.34375 C 349.046875 -335.800781 334.53125 -346.796875 303 -351.328125 L 308.34375 -388.5 C 318.394531 -394.53125 335.851562 -399.0625 360.71875 -402.09375 C 385.582031 -405.132812 412.367188 -404.597656 441.078125 -400.484375 C 464.171875 -397.171875 478.988281 -392.3125 485.53125 -385.90625 C 492.082031 -379.5 493.988281 -366.722656 491.25 -347.578125 Z M 446.640625 -36.75 "/></g></g></g><g fill="#65491f" fill-opacity="1"><g transform="translate(398.862904, 870.832744)"><g><path d="M 176.71875 -386.28125 L 189.578125 -146.015625 C 190.492188 -128.972656 194.535156 -117.367188 201.703125 -111.203125 C 208.867188 -105.035156 218.695312 -102.285156 231.1875 -102.953125 C 241.988281 -103.535156 253.203125 -106.984375 264.828125 -113.296875 C 276.453125 -119.609375 285.445312 -127.207031 291.8125 -136.09375 C 297.726562 -131.851562 302.203125 -125.253906 305.234375 -116.296875 C 308.273438 -107.347656 309.992188 -99.179688 310.390625 -91.796875 C 311.085938 -78.734375 307.226562 -65.707031 298.8125 -52.71875 C 290.40625 -39.738281 277.320312 -28.785156 259.5625 -19.859375 C 241.8125 -10.941406 220.148438 -5.800781 194.578125 -4.4375 C 154.828125 -2.3125 122.269531 -11.960938 96.90625 -33.390625 C 71.550781 -54.816406 57.460938 -91.941406 54.640625 -144.765625 L 42.09375 -379.078125 L -11.59375 -376.203125 L -14.375 -428.203125 C 0.28125 -431.253906 14.117188 -441.53125 27.140625 -459.03125 C 40.160156 -476.539062 50.960938 -498.203125 59.546875 -524.015625 C 68.140625 -549.828125 73.1875 -575.300781 74.6875 -600.4375 C 84.820312 -602.6875 94.15625 -604.039062 102.6875 -604.5 C 123.132812 -605.59375 138.640625 -600.582031 149.203125 -589.46875 C 159.765625 -578.351562 165.421875 -565.695312 166.171875 -551.5 L 170.96875 -462.03125 L 269.8125 -467.328125 C 270.71875 -450.285156 270.644531 -435.609375 269.59375 -423.296875 C 268.539062 -410.992188 265.414062 -400.144531 260.21875 -390.75 Z M 176.71875 -386.28125 "/></g></g></g><g fill="#705c3d" fill-opacity="1"><g transform="translate(336.758073, 1176.561169)"><g><path d="M 254.78125 -339.890625 L 216.28125 -102.375 C 213.539062 -85.53125 215.015625 -73.332031 220.703125 -65.78125 C 226.398438 -58.226562 235.425781 -53.453125 247.78125 -51.453125 C 258.457031 -49.722656 270.144531 -50.707031 282.84375 -54.40625 C 295.550781 -58.113281 305.957031 -63.632812 314.0625 -70.96875 C 318.945312 -65.5625 321.921875 -58.160156 322.984375 -48.765625 C 324.054688 -39.378906 324 -31.035156 322.8125 -23.734375 C 320.71875 -10.816406 314.179688 1.085938 303.203125 11.984375 C 292.222656 22.878906 277.109375 30.800781 257.859375 35.75 C 238.617188 40.695312 216.359375 41.125 191.078125 37.03125 C 151.785156 30.65625 122.023438 14.300781 101.796875 -12.03125 C 81.578125 -38.363281 75.703125 -77.632812 84.171875 -129.84375 L 121.71875 -361.46875 L 68.640625 -370.078125 L 76.96875 -421.484375 C 91.9375 -421.347656 107.640625 -428.445312 124.078125 -442.78125 C 140.523438 -457.113281 155.6875 -475.976562 169.5625 -499.375 C 183.445312 -522.769531 193.789062 -546.597656 200.59375 -570.859375 C 210.96875 -570.890625 220.375 -570.222656 228.8125 -568.859375 C 249.019531 -565.578125 263.101562 -557.382812 271.0625 -544.28125 C 279.03125 -531.1875 281.878906 -517.625 279.609375 -503.59375 L 265.265625 -415.15625 L 362.96875 -399.3125 C 360.238281 -382.457031 357.050781 -368.128906 353.40625 -356.328125 C 349.757812 -344.523438 344.398438 -334.585938 337.328125 -326.515625 Z M 254.78125 -339.890625 "/></g></g></g><g fill="#9c8460" fill-opacity="1"><g transform="translate(405.051458, 1022.464162)"><g><path d="M 230.140625 -510.234375 C 255.359375 -514.609375 274.96875 -511.367188 288.96875 -500.515625 C 302.976562 -489.671875 311.929688 -473.035156 315.828125 -450.609375 C 320.015625 -426.515625 317.113281 -405.804688 307.125 -388.484375 C 297.144531 -371.160156 281.503906 -360.648438 260.203125 -356.953125 C 241.703125 -353.742188 225.78125 -356.46875 212.4375 -365.125 C 199.101562 -373.78125 191.171875 -385.394531 188.640625 -399.96875 C 187.085938 -408.9375 186.71875 -416.085938 187.53125 -421.421875 C 168.226562 -412.867188 152.640625 -401.210938 140.765625 -386.453125 L 184.5625 -134.234375 C 186.988281 -120.222656 190.796875 -109.914062 195.984375 -103.3125 C 201.171875 -96.707031 209.828125 -92.582031 221.953125 -90.9375 C 234.078125 -89.289062 251.628906 -90.460938 274.609375 -94.453125 C 276.359375 -84.359375 276.71875 -75.613281 275.6875 -68.21875 C 274.65625 -60.820312 271.597656 -53.503906 266.515625 -46.265625 L 42.046875 -7.296875 C 26.898438 -17.941406 17.820312 -31.957031 14.8125 -49.34375 C 31.070312 -52.164062 42.09375 -57.6875 47.875 -65.90625 C 53.664062 -74.125 55.101562 -86.644531 52.1875 -103.46875 L 10 -346.4375 C 7.375 -361.570312 1.460938 -371.515625 -7.734375 -376.265625 C -16.929688 -381.015625 -31.898438 -381.585938 -52.640625 -377.984375 L -59.203125 -415.828125 C -42.554688 -429.679688 -19.664062 -443.320312 9.46875 -456.75 C 38.613281 -470.1875 61.585938 -478.363281 78.390625 -481.28125 C 91.847656 -483.613281 102.203125 -480.503906 109.453125 -471.953125 C 116.710938 -463.398438 122.828125 -444.832031 127.796875 -416.25 C 134.578125 -437.050781 147.582031 -456.914062 166.8125 -475.84375 C 186.050781 -494.78125 207.160156 -506.242188 230.140625 -510.234375 Z M 230.140625 -510.234375 "/></g></g></g><g clip-path="url(#7cfbb5223a)"><g transform="matrix(1, 0, 0, 1, 194, 66)"><g clip-path="url(#f1d305f938)"><g fill="#3a270b" fill-opacity="1"><g transform="translate(1.067445, 1090.272717)"><g><path d="M 150.296875 -267.90625 C 161.910156 -206.925781 184.78125 -158.828125 218.90625 -123.609375 C 253.03125 -88.398438 293.328125 -70.796875 339.796875 -70.796875 C 370.285156 -70.796875 392.789062 -79.503906 407.3125 -96.921875 C 421.832031 -114.347656 429.09375 -133.59375 429.09375 -154.65625 C 429.09375 -185.875 415.476562 -212.191406 388.25 -233.609375 C 361.03125 -255.023438 322.007812 -278.078125 271.1875 -302.765625 C 202.9375 -336.160156 151.382812 -373.1875 116.53125 -413.84375 C 81.675781 -454.507812 64.25 -503.882812 64.25 -561.96875 C 64.25 -604.800781 74.957031 -642.007812 96.375 -673.59375 C 117.800781 -705.175781 147.023438 -729.316406 184.046875 -746.015625 C 221.078125 -762.710938 262.460938 -771.0625 308.203125 -771.0625 C 332.171875 -771.0625 358.128906 -768.703125 386.078125 -763.984375 C 414.023438 -759.265625 436.351562 -752.1875 453.0625 -742.75 L 545.625 -771.0625 C 558.695312 -748.5625 567.046875 -717.523438 570.671875 -677.953125 C 574.304688 -638.378906 576.125 -592.816406 576.125 -541.265625 L 576.125 -524.9375 L 485.734375 -524.9375 C 459.585938 -630.9375 408.398438 -683.9375 332.171875 -683.9375 C 303.128906 -683.9375 281.347656 -675.769531 266.828125 -659.4375 C 252.304688 -643.101562 245.046875 -621.503906 245.046875 -594.640625 C 245.046875 -572.859375 250.851562 -553.976562 262.46875 -538 C 274.082031 -522.03125 288.785156 -508.414062 306.578125 -497.15625 C 324.367188 -485.90625 348.144531 -473.019531 377.90625 -458.5 C 423.644531 -435.988281 461.941406 -414.929688 492.796875 -395.328125 C 523.660156 -375.734375 550.34375 -349.78125 572.84375 -317.46875 C 595.351562 -285.15625 606.609375 -246.851562 606.609375 -202.5625 C 606.609375 -161.90625 596.441406 -125.054688 576.109375 -92.015625 C 555.785156 -58.984375 526.203125 -32.664062 487.359375 -13.0625 C 448.515625 6.539062 403.316406 16.34375 351.765625 16.34375 C 292.960938 16.34375 234.519531 4 176.4375 -20.6875 L 92.578125 16.34375 C 78.773438 -11.25 66.789062 -54.269531 56.625 -112.71875 C 46.46875 -171.164062 41.390625 -222.894531 41.390625 -267.90625 Z M 150.296875 -267.90625 "/></g></g></g></g></g></g></g></g></svg>