<svg xmlns="http://www.w3.org/2000/svg" xmlns:xlink="http://www.w3.org/1999/xlink" width="2000" zoomAndPan="magnify" viewBox="0 0 1500 1499.999933" height="2000" preserveAspectRatio="xMidYMid meet" version="1.0"><defs><g/><clipPath id="5526a4535a"><path d="M 99 610.40625 L 1397.328125 610.40625 L 1397.328125 750 L 99 750 Z M 99 610.40625 " clip-rule="nonzero"/></clipPath><clipPath id="c64053195c"><path d="M 118.5 610.40625 L 1377.636719 610.40625 C 1382.808594 610.40625 1387.769531 612.460938 1391.425781 616.117188 C 1395.082031 619.773438 1397.136719 624.734375 1397.136719 629.90625 L 1397.136719 730.5 C 1397.136719 735.671875 1395.082031 740.632812 1391.425781 744.289062 C 1387.769531 747.945312 1382.808594 750 1377.636719 750 L 118.5 750 C 113.328125 750 108.367188 747.945312 104.710938 744.289062 C 101.054688 740.632812 99 735.671875 99 730.5 L 99 629.90625 C 99 624.734375 101.054688 619.773438 104.710938 616.117188 C 108.367188 612.460938 113.328125 610.40625 118.5 610.40625 Z M 118.5 610.40625 " clip-rule="nonzero"/></clipPath><clipPath id="b9abb8e192"><path d="M 0 0.40625 L 1298.28125 0.40625 L 1298.28125 140 L 0 140 Z M 0 0.40625 " clip-rule="nonzero"/></clipPath><clipPath id="002ec1eef7"><path d="M 19.5 0.40625 L 1278.636719 0.40625 C 1283.808594 0.40625 1288.769531 2.460938 1292.425781 6.117188 C 1296.082031 9.773438 1298.136719 14.734375 1298.136719 19.90625 L 1298.136719 120.5 C 1298.136719 125.671875 1296.082031 130.632812 1292.425781 134.289062 C 1288.769531 137.945312 1283.808594 140 1278.636719 140 L 19.5 140 C 14.328125 140 9.367188 137.945312 5.710938 134.289062 C 2.054688 130.632812 0 125.671875 0 120.5 L 0 19.90625 C 0 14.734375 2.054688 9.773438 5.710938 6.117188 C 9.367188 2.460938 14.328125 0.40625 19.5 0.40625 Z M 19.5 0.40625 " clip-rule="nonzero"/></clipPath><clipPath id="ea832263a3"><rect x="0" width="1299" y="0" height="140"/></clipPath></defs><g clip-path="url(#5526a4535a)"><g clip-path="url(#c64053195c)"><g transform="matrix(1, 0, 0, 1, 99, 610)"><g clip-path="url(#ea832263a3)"><g clip-path="url(#b9abb8e192)"><g clip-path="url(#002ec1eef7)"><path fill="#3a270b" d="M 0 0.40625 L 1298.328125 0.40625 L 1298.328125 140 L 0 140 Z M 0 0.40625 " fill-opacity="1" fill-rule="nonzero"/></g></g></g></g></g></g><g fill="#ffedd3" fill-opacity="1"><g transform="translate(165.004649, 874.1051)"><g><path d="M 64.125 -114.3125 C 69.082031 -88.289062 78.835938 -67.765625 93.390625 -52.734375 C 107.953125 -37.710938 125.144531 -30.203125 144.96875 -30.203125 C 157.976562 -30.203125 167.582031 -33.914062 173.78125 -41.34375 C 179.976562 -48.78125 183.078125 -56.992188 183.078125 -65.984375 C 183.078125 -79.304688 177.265625 -90.535156 165.640625 -99.671875 C 154.023438 -108.804688 137.378906 -118.640625 115.703125 -129.171875 C 86.578125 -143.421875 64.582031 -159.21875 49.71875 -176.5625 C 34.851562 -193.914062 27.421875 -214.984375 27.421875 -239.765625 C 27.421875 -258.035156 31.988281 -273.910156 41.125 -287.390625 C 50.257812 -300.867188 62.722656 -311.171875 78.515625 -318.296875 C 94.316406 -325.421875 111.976562 -328.984375 131.5 -328.984375 C 141.71875 -328.984375 152.789062 -327.972656 164.71875 -325.953125 C 176.644531 -323.941406 186.171875 -320.921875 193.296875 -316.890625 L 232.796875 -328.984375 C 238.367188 -319.378906 241.925781 -306.132812 243.46875 -289.25 C 245.019531 -272.363281 245.796875 -252.925781 245.796875 -230.9375 L 245.796875 -223.96875 L 207.234375 -223.96875 C 196.085938 -269.1875 174.25 -291.796875 141.71875 -291.796875 C 129.332031 -291.796875 120.039062 -288.3125 113.84375 -281.34375 C 107.644531 -274.375 104.546875 -265.160156 104.546875 -253.703125 C 104.546875 -244.410156 107.023438 -236.351562 111.984375 -229.53125 C 116.941406 -222.71875 123.210938 -216.910156 130.796875 -212.109375 C 138.390625 -207.304688 148.535156 -201.8125 161.234375 -195.625 C 180.753906 -186.019531 197.09375 -177.035156 210.25 -168.671875 C 223.414062 -160.304688 234.800781 -149.226562 244.40625 -135.4375 C 254.007812 -121.65625 258.8125 -105.316406 258.8125 -86.421875 C 258.8125 -69.078125 254.472656 -53.359375 245.796875 -39.265625 C 237.128906 -25.171875 224.507812 -13.941406 207.9375 -5.578125 C 191.363281 2.785156 172.078125 6.96875 150.078125 6.96875 C 124.992188 6.96875 100.0625 1.703125 75.28125 -8.828125 L 39.5 6.96875 C 33.613281 -4.800781 28.5 -23.15625 24.15625 -48.09375 C 19.820312 -73.03125 17.65625 -95.101562 17.65625 -114.3125 Z M 64.125 -114.3125 "/></g></g></g><g fill="#ffedd3" fill-opacity="1"><g transform="translate(427.776861, 874.1051)"><g><path d="M 196.078125 -59.015625 C 198.554688 -56.222656 200.644531 -52.503906 202.34375 -47.859375 C 204.050781 -43.210938 204.90625 -39.1875 204.90625 -35.78125 C 204.90625 -28.96875 201.34375 -22.304688 194.21875 -15.796875 C 187.101562 -9.296875 177.582031 -3.878906 165.65625 0.453125 C 153.726562 4.796875 140.789062 6.96875 126.84375 6.96875 C 104.238281 6.96875 84.257812 1.859375 66.90625 -8.359375 C 49.5625 -18.585938 36.085938 -33.300781 26.484375 -52.5 C 16.878906 -71.707031 12.078125 -94.476562 12.078125 -120.8125 C 12.078125 -147.757812 17.265625 -171.144531 27.640625 -190.96875 C 38.023438 -210.800781 52.429688 -225.984375 70.859375 -236.515625 C 89.285156 -247.046875 109.960938 -252.3125 132.890625 -252.3125 C 155.816406 -252.3125 173.707031 -246.8125 186.5625 -235.8125 C 199.414062 -224.8125 205.84375 -210.796875 205.84375 -193.765625 C 205.84375 -179.203125 202.125 -167.816406 194.6875 -159.609375 C 187.257812 -151.398438 177.65625 -147.296875 165.875 -147.296875 C 156.28125 -147.296875 148.226562 -150.859375 141.71875 -157.984375 C 135.21875 -165.109375 131.96875 -173.78125 131.96875 -184 C 131.96875 -190.8125 133.203125 -196.539062 135.671875 -201.1875 C 138.148438 -205.84375 141.5625 -210.023438 145.90625 -213.734375 C 140.945312 -216.523438 136.453125 -217.921875 132.421875 -217.921875 C 121.890625 -217.921875 112.597656 -211.644531 104.546875 -199.09375 C 96.492188 -186.550781 92.46875 -165.878906 92.46875 -137.078125 C 92.46875 -104.234375 97.269531 -80.609375 106.875 -66.203125 C 116.476562 -51.804688 130.570312 -44.609375 149.15625 -44.609375 C 157.832031 -44.609375 166.425781 -45.847656 174.9375 -48.328125 C 183.457031 -50.804688 190.503906 -54.367188 196.078125 -59.015625 Z M 196.078125 -59.015625 "/></g></g></g><g fill="#ffedd3" fill-opacity="1"><g transform="translate(613.581493, 760.190021)"><g><path d="M -9.03125 -299.796875 C -10.269531 -307.441406 -13.414062 -312.816406 -18.46875 -315.921875 C -23.519531 -319.023438 -32.007812 -319.609375 -43.9375 -317.671875 L -46.90625 -336.015625 C -36.894531 -343.921875 -23.820312 -351.375 -7.6875 -358.375 C 8.4375 -365.382812 21.695312 -369.726562 32.09375 -371.40625 C 39.425781 -372.59375 44.867188 -371.90625 48.421875 -369.34375 C 51.972656 -366.789062 54.367188 -361.691406 55.609375 -354.046875 L 101.984375 -67.828125 C 103.515625 -58.359375 106.488281 -52.097656 110.90625 -49.046875 C 115.332031 -45.992188 122.128906 -45.207031 131.296875 -46.6875 C 132.679688 -38.125 130.347656 -29.273438 124.296875 -20.140625 L 23.84375 -3.859375 C 15.570312 -10.359375 10.71875 -18.046875 9.28125 -26.921875 C 18.15625 -28.359375 24.269531 -31.3125 27.625 -35.78125 C 30.976562 -40.25 31.914062 -47.066406 30.4375 -56.234375 Z M -9.03125 -299.796875 "/></g></g></g><g fill="#ffedd3" fill-opacity="1"><g transform="translate(666.085966, 872.613978)"><g><path d="M 243.21875 -20.015625 C 242.164062 -12.660156 243.203125 -6.253906 246.328125 -0.796875 C 249.453125 4.660156 254.492188 8.203125 261.453125 9.828125 L 259.609375 22.703125 C 253.910156 27.515625 245.703125 30.71875 234.984375 32.3125 C 224.273438 33.90625 213.707031 33.953125 203.28125 32.453125 C 192.863281 30.960938 184.367188 26.929688 177.796875 20.359375 C 171.222656 13.785156 167.421875 5.410156 166.390625 -4.765625 C 148.671875 13.972656 126.164062 21.382812 98.875 17.46875 C 77.414062 14.394531 61.648438 5.410156 51.578125 -9.484375 C 41.515625 -24.390625 38.085938 -43.035156 41.296875 -65.421875 L 59.453125 -191.90625 C 60.203125 -197.125 58.816406 -201.078125 55.296875 -203.765625 C 51.773438 -206.460938 46.332031 -208.34375 38.96875 -209.40625 L 41.875 -229.640625 C 47 -232.648438 56.34375 -235.0625 69.90625 -236.875 C 83.46875 -238.6875 97.609375 -238.539062 112.328125 -236.4375 C 120.910156 -235.195312 127.113281 -233.753906 130.9375 -232.109375 C 134.769531 -230.460938 137.207031 -227.84375 138.25 -224.25 C 139.300781 -220.65625 139.300781 -215.179688 138.25 -207.828125 L 116.0625 -53.28125 C 114.695312 -43.769531 115.285156 -36.40625 117.828125 -31.1875 C 120.378906 -25.976562 125.335938 -22.847656 132.703125 -21.796875 C 138.828125 -20.921875 145.148438 -21.96875 151.671875 -24.9375 C 158.203125 -27.914062 164.015625 -31.859375 169.109375 -36.765625 L 188.71875 -173.359375 C 190.082031 -182.867188 182.175781 -188.851562 165 -191.3125 L 167.90625 -211.546875 C 173.382812 -214.835938 182.890625 -217.304688 196.421875 -218.953125 C 209.960938 -220.609375 224.550781 -220.316406 240.1875 -218.078125 C 252.757812 -216.273438 260.832031 -213.628906 264.40625 -210.140625 C 267.976562 -206.648438 269.015625 -199.695312 267.515625 -189.28125 Z M 243.21875 -20.015625 "/></g></g></g><g fill="#ffedd3" fill-opacity="1"><g transform="translate(866.41689, 678.011139)"><g><path d="M 96.21875 -210.34375 L 103.21875 -79.5 C 103.71875 -70.21875 105.921875 -63.894531 109.828125 -60.53125 C 113.734375 -57.175781 119.085938 -55.679688 125.890625 -56.046875 C 131.765625 -56.359375 137.867188 -58.238281 144.203125 -61.6875 C 150.535156 -65.132812 155.429688 -69.273438 158.890625 -74.109375 C 162.128906 -71.796875 164.570312 -68.203125 166.21875 -63.328125 C 167.875 -58.460938 168.804688 -54.015625 169.015625 -49.984375 C 169.398438 -42.867188 167.300781 -35.773438 162.71875 -28.703125 C 158.144531 -21.628906 151.019531 -15.664062 141.34375 -10.8125 C 131.664062 -5.957031 119.867188 -3.15625 105.953125 -2.40625 C 84.304688 -1.25 66.578125 -6.503906 52.765625 -18.171875 C 38.960938 -29.847656 31.289062 -50.070312 29.75 -78.84375 L 22.921875 -206.421875 L -6.3125 -204.859375 L -7.8125 -233.171875 C 0.15625 -234.828125 7.679688 -240.421875 14.765625 -249.953125 C 21.859375 -259.492188 27.742188 -271.289062 32.421875 -285.34375 C 37.109375 -299.40625 39.859375 -313.28125 40.671875 -326.96875 C 46.191406 -328.1875 51.269531 -328.921875 55.90625 -329.171875 C 67.039062 -329.765625 75.484375 -327.035156 81.234375 -320.984375 C 86.992188 -314.941406 90.078125 -308.054688 90.484375 -300.328125 L 93.09375 -251.59375 L 146.921875 -254.46875 C 147.421875 -245.195312 147.382812 -237.210938 146.8125 -230.515625 C 146.238281 -223.816406 144.535156 -217.90625 141.703125 -212.78125 Z M 96.21875 -210.34375 "/></g></g></g><g fill="#ffedd3" fill-opacity="1"><g transform="translate(964.473644, 898.496745)"><g><path d="M 138.734375 -185.09375 L 117.765625 -55.75 C 116.273438 -46.582031 117.078125 -39.9375 120.171875 -35.8125 C 123.273438 -31.695312 128.191406 -29.097656 134.921875 -28.015625 C 140.734375 -27.066406 147.097656 -27.601562 154.015625 -29.625 C 160.929688 -31.644531 166.597656 -34.648438 171.015625 -38.640625 C 173.679688 -35.703125 175.304688 -31.675781 175.890625 -26.5625 C 176.472656 -21.445312 176.441406 -16.898438 175.796875 -12.921875 C 174.648438 -5.890625 171.085938 0.59375 165.109375 6.53125 C 159.128906 12.46875 150.894531 16.78125 140.40625 19.46875 C 129.925781 22.15625 117.8125 22.382812 104.0625 20.15625 C 82.65625 16.6875 66.441406 7.785156 55.421875 -6.546875 C 44.410156 -20.890625 41.210938 -42.28125 45.828125 -70.71875 L 66.28125 -196.84375 L 37.375 -201.515625 L 41.90625 -229.5 C 50.0625 -229.4375 58.613281 -233.304688 67.5625 -241.109375 C 76.519531 -248.910156 84.78125 -259.179688 92.34375 -271.921875 C 99.90625 -284.671875 105.535156 -297.644531 109.234375 -310.84375 C 114.890625 -310.863281 120.007812 -310.503906 124.59375 -309.765625 C 135.601562 -307.984375 143.273438 -303.523438 147.609375 -296.390625 C 151.941406 -289.253906 153.488281 -281.867188 152.25 -274.234375 L 144.4375 -226.0625 L 197.65625 -217.4375 C 196.175781 -208.257812 194.441406 -200.457031 192.453125 -194.03125 C 190.460938 -187.613281 187.546875 -182.203125 183.703125 -177.796875 Z M 138.734375 -185.09375 "/></g></g></g><g fill="#ffedd3" fill-opacity="1"><g transform="translate(1136.321422, 760.582563)"><g><path d="M 125.328125 -277.84375 C 139.054688 -280.226562 149.734375 -278.460938 157.359375 -272.546875 C 164.992188 -266.640625 169.867188 -257.582031 171.984375 -245.375 C 174.265625 -232.257812 172.6875 -220.984375 167.25 -211.546875 C 161.8125 -202.117188 153.296875 -196.394531 141.703125 -194.375 C 131.617188 -192.625 122.941406 -194.109375 115.671875 -198.828125 C 108.410156 -203.546875 104.09375 -209.867188 102.71875 -217.796875 C 101.875 -222.679688 101.671875 -226.570312 102.109375 -229.46875 C 91.609375 -224.820312 83.125 -218.476562 76.65625 -210.4375 L 100.5 -73.09375 C 101.820312 -65.46875 103.894531 -59.851562 106.71875 -56.25 C 109.539062 -52.65625 114.253906 -50.410156 120.859375 -49.515625 C 127.460938 -48.617188 137.019531 -49.253906 149.53125 -51.421875 C 150.488281 -45.929688 150.6875 -41.171875 150.125 -37.140625 C 149.5625 -33.109375 147.894531 -29.125 145.125 -25.1875 L 22.890625 -3.96875 C 14.648438 -9.769531 9.707031 -17.398438 8.0625 -26.859375 C 16.90625 -28.398438 22.90625 -31.40625 26.0625 -35.875 C 29.21875 -40.351562 30.003906 -47.171875 28.421875 -56.328125 L 5.4375 -188.65625 C 4.007812 -196.894531 0.789062 -202.304688 -4.21875 -204.890625 C -9.226562 -207.472656 -17.378906 -207.785156 -28.671875 -205.828125 L -32.25 -226.421875 C -23.175781 -233.972656 -10.707031 -241.40625 5.15625 -248.71875 C 21.019531 -256.039062 33.53125 -260.492188 42.6875 -262.078125 C 50.019531 -263.347656 55.660156 -261.648438 59.609375 -256.984375 C 63.554688 -252.328125 66.882812 -242.222656 69.59375 -226.671875 C 73.289062 -238.003906 80.375 -248.820312 90.84375 -259.125 C 101.3125 -269.425781 112.804688 -275.664062 125.328125 -277.84375 Z M 125.328125 -277.84375 "/></g></g></g></svg>